# xmcd
#
# Track frame offsets:
#	150
#	17277
#	29443
#	43618
#	59415
#	75025
#	89570
#	103195
#	115362
#	133248
#	146678
#	161973
#	175875
#	192583
#	206368
#	220263
#	233053
#	248870
#	263243
#	279453
#
# Disc length: 4081 seconds
#
# Revision: 1
# Processed by: cddbd v1.4PL0 Copyright (c) Steve Scherf et al.
# Submitted via: audiograbber 1.80.04
#
DISCID=230fef14
DTITLE=Various Artist - Louca Paixão
DYEAR=2002
DGENRE=Country
TTITLE0=Sandro Lucio - Mete o Pé na Bunda Dele
TTITLE1=Robério dos Teclados - Estou Apaixonado Por Você
TTITLE2=Borba de Paula - Laço Aberto
TTITLE3=Reginaldo Rossi - Leviana
TTITLE4=Julio Nascimento - Um Mundo de Amor
TTITLE5=Waldick Soriano - Carente de Amor
TTITLE6=Cristiano Neves - Carta no Quintal
TTITLE7=Adelino Nascimento - Obsessão
TTITLE8=Lairton e Seus Teclados - Tchau Tchau Amor
TTITLE9=Nino Rafael - Louca Paixão
TTITLE10=Ray Douglas - Hoje a Noite Não Tem Luar
TTITLE11=Paulo Porto - Eu Vou Dormir No Brega
TTITLE12=Lindomar Lins - Ô Coitado
TTITLE13=Geraldo Nunes - Chapéu de Boi
TTITLE14=Odair José - Vou Tirar Você Desse Lugar
TTITLE15=Célio Roberto - Fantasia de Amor
TTITLE16=Roberto Muller - Pare Telefone Pare
TTITLE17=Ney Manoel - A Fã
TTITLE18=Wilson Rogério - Fera do Sertão
TTITLE19=Mauricio Reis - Pot-pourri: Verônica/Dançarina/Mercedão Vermelho
EXTD=
EXTT0=
EXTT1=
EXTT2=
EXTT3=
EXTT4=
EXTT5=
EXTT6=
EXTT7=
EXTT8=
EXTT9=
EXTT10=
EXTT11=
EXTT12=
EXTT13=
EXTT14=
EXTT15=
EXTT16=
EXTT17=
EXTT18=
EXTT19=
PLAYORDER=
